<svg fill="none" height="40" width="140" xmlns="http://www.w3.org/2000/svg" alt="Online casino Fairspin" class="base-logo__image" data-v-b37c2012=""><mask xmlns="http://www.w3.org/2000/svg" id="a" style="mask-type:alpha" maskUnits="userSpaceOnUse" x="-1" y="0" width="141" height="40"><path fill="#C4C4C4" d="M0 0h140v40H0z"></path></mask><g xmlns="http://www.w3.org/2000/svg" mask="url(#a)"><path d="M12.86 24.317c-.264 1.443-.544 2.663-.66 3.917-.032.412.396.859.56 1.202-.51.584-1.052 1.22-1.76 2.045 1.284 0 2.32.051 3.324-.018.724-.051 1.514-1.838 1.135-2.49a208.015 208.015 0 0 0-2.6-4.656zM29.787 4.216a4.677 4.677 0 0 0 1.168-2.368c.04-.255.057-.466.037-.468-.021-.003-.652.284-1.402.636-1.198.562-4.822 2.235-10.35 4.779-2.04.939-2.776 1.313-3.554 1.805L14.31 9.96c-.063.067-.045.146.09.402.095.175.166.351.159.392-.008.041-.038.292-.07.559-.06.517-.221.93-.424 1.078-.106.078-.243.503-.202.63l.72 2.412c-.036-.625.26-1.851.594-2.44.652-1.156 1.558-1.998 3.04-2.829.48-.269 4.309-2.06 8.135-3.808 1.793-.818 2.77-1.427 3.435-2.14z" fill="#FFCA42"></path><path d="M21.759 16.095c.199.461.219 1.699.038 2.418l.73 3.08a5.285 5.285 0 0 0 2.04-4.59l-.042-.563.216-.093c2.252-.977 3.21-1.984 3.828-4.021.102-.337.169-.617.149-.622-.04-.01-.136.033-3.22 1.454l-2.03.935-.4-.411a5.81 5.81 0 0 0-.62-.566c-.122-.085-.217-.174-.211-.198.006-.024.137-.102.29-.174l2.427-1.119c1.18-.543 2.457-1.176 2.837-1.406 1.413-.852 2.207-1.82 2.604-3.177.252-.86.246-.908-.087-.734-.141.073-1.154.545-2.252 1.048-1.097.503-3.292 1.514-4.878 2.246-3.483 1.607-3.54 1.633-4.201 1.93-1.083.487-1.585 1.23-1.585 1.23l-.746.992-.037.151-.19 2.144c.407-.24 2.18 2.41 3.136 1.032.634.127.242-1.364.69-1.002.749.602.823-.322.927.576.019.156.055.278.082.269.07-.023.293-.469.373-.745l.067-.234.065.15z" fill="#FFCA42"></path><path d="M14.326 5.77c.708 2.612 1.596 5.189 2.468 7.749.297.034 2.074.945 2.255.962 3.636.945 7.29 1.89 10.926 2.886.41.12.888.43 1.119.79 1.563 2.405 3.077 4.845 4.59 7.267.297.464.527.67 1.037.24.313-.257.823-.55 1.136-.446.79.24 1.514.687 2.419 1.116-.873.516-1.53.945-2.222 1.323-.18.086-.444.19-.61.12-1.282-.55-2.6-.962-3.438-2.336-.938-1.546-2.09-2.955-3.176-4.484-.082.481-.213.842-.213 1.186.016.67-.083 1.443.197 1.975.494.928 1.267 1.684 1.86 2.56.164.24.246.687.148.945-.61 1.597-1.251 2.662-1.91 4.226-.082.189-.328.43-.493.43-1.02.034-2.057.016-3.16.016.33-.755.116-1.666 1.103-1.906.658-.155 1.48-1.598 1.218-2.234-.066-.172-.296-.309-.477-.412-1.317-.721-2.617-1.477-3.966-2.13-.642-.31-.691-.722-.592-1.357.098-.619.082-1.254.13-1.942-3.372.773-6.581 1.512-9.79 2.2-.312.068-.756-.087-1.003-.31-.61-.532-1.135-1.168-1.81-1.855-.214 1.254-.494 2.302-.543 3.35-.115 2.267-.89 4.277-1.975 6.184-.115.19-.345.412-.526.412-.922.035-1.843.018-2.781.018.296-1.942.296-1.942 1.613-2.148-.74-2.662-1.481-5.308-2.255-8.074-.79.601-1.53 1.151-2.353 1.787 0-2.972.05-5.773-.016-8.573-.033-1.185.082-2.13 1.333-2.508.164-.051.296-.172.444-.258-1.004-.12-1.876-.068-2.732.018-.444.051-.658-.138-.84-.567a50.24 50.24 0 0 0-1.3-2.904c-.23-.498-.213-.773.297-1.099 2.386-1.495 4.707-3.04 7.076-4.552.23-.138.576-.138.84-.086 1.316.292 2.632.6 3.915.979.823.24 1.728.223 2.057 1.443V5.77z" fill="#FFCA42"></path><path d="M23.265 24.317c-1.842.36-3.554.67-5.265.996.28 1.34 1.07 2.045 2.435 2.302.74.138 1.48.31 2.189.584.214.086.41.55.41.842 0 .412.297.98-.344 1.254-.89.361-1.17.722-1.498 1.787.97 0 1.925-.017 2.88 0 .494.017.576-.292.625-.687.165-1.203.346-2.405.46-3.608.017-.24-.164-.498-.28-.739-.015-.051-.081-.085-.114-.103-.955-.55-1.925-1.116-1.498-2.628z" fill="#FFCA42"></path><path d="M50.726 15.925v2.42h6.2v3.529h-6.2v5.771h-3.71v-15.25h10.52v3.53h-6.81zm20.544-.263-.02 11.983h-3.71v-1.287c-.763.936-1.854 1.57-3.382 1.57-3.055 0-5.416-2.57-5.416-6.277 0-3.727 2.4-6.276 5.39-6.276 1.529 0 2.665.654 3.429 1.634v-1.352h3.71v.005h-.001zm-3.71 5.994c0-1.658-1.09-2.747-2.534-2.747-1.438 0-2.53 1.089-2.53 2.747 0 1.678 1.112 2.747 2.53 2.747 1.439-.005 2.535-1.07 2.535-2.747h-.001zm10.962-9.543c0 1.243-.938 2.134-2.247 2.134-1.265 0-2.247-.891-2.247-2.134 0-1.217.982-2.113 2.247-2.113 1.304 0 2.247.89 2.247 2.113zm-4.107 3.55h3.71v11.982h-3.71V15.662v.001zm14.74-.219v3.812c-.237-.02-.391-.045-.743-.045-1.746 0-3.427.525-3.427 3.247v5.182h-3.71V15.662h3.71v1.851c.744-1.46 1.964-2.133 3.492-2.133.282 0 .5.02.679.064zm1.3 8.41h3.755c.154.653.635 1.287 2.356 1.287 1.245 0 1.637-.327 1.637-.827 0-.48-.372-.589-2.42-1.024-3.428-.743-4.826-1.659-4.826-3.767 0-2.594 2.073-4.118 5.544-4.118 3.383 0 5.044 1.46 5.411 3.747h-3.754c-.154-.565-.635-.96-1.81-.96-1.091 0-1.637.326-1.637.85 0 .416.352.456 1.79.763 3.581.782 5.521 1.505 5.521 3.984 0 2.767-2.421 4.138-5.501 4.138-3.253 0-5.63-1.544-6.065-4.073zm26.163-2.198c0 3.702-2.356 6.276-5.416 6.276-1.527 0-2.619-.633-3.407-1.569v5.808h-3.71V15.662h3.71v1.351c.764-.98 1.899-1.633 3.427-1.633 2.996 0 5.396 2.55 5.396 6.276zm-3.754 0c0-1.658-1.091-2.747-2.53-2.747-1.443 0-2.534 1.089-2.534 2.747 0 1.678 1.091 2.747 2.534 2.747 1.414-.005 2.53-1.069 2.53-2.747zm9.825-9.543c0 1.243-.938 2.134-2.247 2.134-1.265 0-2.247-.891-2.247-2.134 0-1.217.982-2.113 2.247-2.113 1.304 0 2.247.89 2.247 2.113zm-4.107 3.55h3.71v11.982h-3.71V15.662v.001zm17.419 4.488v7.494h-3.71v-6.667c0-1.307-.392-2.069-1.9-2.069-1.463 0-2.207.718-2.207 2.376v6.36h-3.71V15.662h3.71v1.351c.873-1.069 1.989-1.633 3.472-1.633 2.708 0 4.345 1.851 4.345 4.771z" fill="#fff"></path></g><title xmlns="http://www.w3.org/2000/svg">Fairspin casino</title></svg>