<svg xmlns:xlink="http://www.w3.org/1999/xlink" xmlns="http://www.w3.org/2000/svg" class="logo_desk ht hm" width="2617.65"  height="900.58" ><defs><symbol id="logo_main" viewBox="0 0 2617.65 900.58" xmlns="http://www.w3.org/2000/svg"><path fill="#FEFEFE" fill-rule="nonzero" d="M1445.3 620.2c-79.76,22.71 -122.7,-15.57 12.48,-343.53 14.99,-5.94 35.68,-12.44 62.11,-19.51 -19.01,1.57 -37.97,3.87 -56.9,6.92l-0.24 0.04 -1.78 0.28 -1.59 0.27 -0.2 0.03 -1.77 0.3 -1.64 0.27 -0.15 0.03 -1.78 0.3 -1.66 0.29 -0.12 0.02 -1.78 0.32 -1.69 0.3 -0.09 0.02 -1.78 0.32 -1.7 0.31 -0.08 0.02 -1.78 0.33 -1.7 0.32 -0.08 0.02c-4.17,0.81 -8.33,1.62 -12.45,2.49l-1.62 0.33 -0.16 0.04 -1.78 0.37c-4.16,0.89 -8.31,1.8 -12.43,2.76l-1.78 0.41 -1.29 0.3 -0.48 0.12 -1.78 0.42c-55.68,13.28 -107.16,32.29 -153.93,55.01 199.88,47.75 46,352.58 -224.04,359.06 -195.4,-17.71 -110.64,-177.17 86.87,-308.81 13.22,1.06 26.6,3.5 39.61,7.24 -121.75,84.75 -187.07,189.28 -171.89,244.97 28.57,100.23 389.42,-163.27 221.1,-245.58l0.03 -0.03 -0.72 -0.32c-7.27,-3.5 -15.56,-6.64 -24.83,-9.43 -1.85,-0.59 -3.73,-1.15 -5.64,-1.69l-0.08 -0.02c-15.27,-4.32 -31.85,-7.28 -49.25,-9.33l-0.06 -0.01 -0.18 -0.02c-3.71,-0.5 -7.48,-0.93 -11.24,-1.25 -103.77,-8.78 -107.22,-293.88 136.57,-351.02 34.35,-8.06 82.77,-15.39 123.22,-10.11 23.09,3.01 43.31,21.41 37.37,53.36 -15.81,84.92 -135.02,172.16 -190.44,192.21 0,0 -11.21,-13.56 5.89,-37.14 51.3,-30.66 140.33,-138.56 73.71,-166.28 -134.44,72.53 -240.57,280.07 -112.62,277.71 8.25,0 16.51,0.59 24.17,0.59 80.78,-42.46 172.76,-77.83 268.27,-99.06l34.79 -79c3.53,-11.2 113.2,-21.23 98.46,8.84l-31.84 53.66c55.42,-5.9 130.3,-16.63 185.15,-10.3 6.46,0.74 -10.59,59.41 -31.84,56.01 -55.98,-8.97 -129.14,-1.49 -180.43,0.28l-16.51 27.7c-59.55,113.8 -100.82,224.64 -110.25,286.55 1.18,43.04 100.82,-101.41 160.96,-168.63 7.07,-7.07 15.92,2.96 17.09,6.49 -25.35,35.96 -120.86,201.65 -159.78,213.44zm637.91 -228.88c45.1,-4.88 76.27,-8.69 115.3,-4.19 6.46,0.74 -10.59,59.41 -31.83,56.01 -30.8,-4.94 -35.04,-5.64 -69.74,-4.31 -18.41,-20.65 -21.64,-36.01 -13.73,-47.51zm-380.25 130.42l107.31 -121.47c8.84,-9.43 16.51,6.49 16.51,6.49 0,0 -79.6,122.05 -121.46,170.99 -41.27,48.34 -91.39,58.95 -113.79,0 -68.98,-183.37 64.27,-281.83 64.27,-281.83 17.41,-13.51 35.35,-17.15 51.71,-15.72 18.26,1.6 62.76,23.01 75.57,37.73 18.31,21.06 11.42,68.63 -146.74,173.15 -7.08,57.77 11.79,92.56 66.62,30.66zm-2.36 -176.3c-27.71,29.48 -47.16,73.7 -57.77,114.39 104.94,-95.52 79,-127.36 57.77,-114.39zm199.88 -109.66c1.76,-10.03 99.05,-15.92 87.85,7.08 -0.59,1.17 -22.41,43.63 -33.61,56.01 126.18,-58.97 130.35,56.55 83.14,163.31 -22.46,50.79 -57.93,102.48 -88.67,121.96 -45.7,28.96 -86.67,36.23 -117.11,1.27 -36.55,101.41 -62.49,189.26 -62.49,209.31 2.94,1.18 -44.82,7.08 -47.18,-15.92 -6.48,-89.03 85.5,-437.48 178.07,-543.02zm-57.79 320.15l12.98 12.38c67.21,74.29 172.16,-288.31 78.41,-229.35 -31.25,62.49 -63.67,141.5 -91.39,216.97zm227.1 167.67c-23,2.36 -32.43,-56.6 -31.84,-53.06 34.2,-10.03 107.9,-130.31 195.75,-268.27 -26.54,-96.11 -38.92,-218.16 -18.87,-354.94 -81.37,21.81 -173.34,68.98 -173.34,140.91 -191.03,-188.67 299.52,-211.07 290.08,-145.63 -46.58,78.42 -55.42,176.88 -39.5,268.27 70.75,-107.31 146.22,-213.44 215.79,-278.88 10.61,-7.08 130.3,24.76 106.72,47.16 -8.84,7.67 -37.73,27.72 -37.73,27.72 -68.4,53.65 -165.1,180.42 -256.48,304.82 22.99,58.37 55.42,108.49 93.16,141.51 49.52,-46 120.28,-125 125.58,-130.9 6.49,-6.48 17.69,1.18 17.1,5.31 -3.54,1.77 -57.19,95.52 -148.58,191.62 -30.66,31.84 -96.1,-22.4 -143.27,-129.71 -91.39,126.17 -169.22,232.3 -194.57,234.07z" class="fil0"></path> <path fill-rule="nonzero" d="M845.83 864.63l0 33.28c-5.15,1.18 -10.3,1.77 -15.45,1.77l-15.15 -1.77 0 -33.28c4.95,-0.98 10,-1.48 15.15,-1.48l15.45 1.48zm27.62 -13.07l0 -54.06c0,-16.24 4.7,-28.46 14.11,-36.68 9.41,-8.22 24.8,-12.33 46.19,-12.33 20.99,0 35.74,4.06 44.26,12.18 8.51,8.12 12.78,20.4 12.78,36.83l0 3.86c-4.56,0.99 -9.21,1.49 -13.97,1.49l-14.25 -1.49 0 -3.86c0,-10.3 -2.14,-17.62 -6.39,-21.98 -4.26,-4.36 -11.74,-6.54 -22.43,-6.54 -10.69,0 -18.17,2.18 -22.42,6.54 -4.26,4.36 -6.39,11.68 -6.39,21.98l0 54.06c0,10.1 2.52,17.38 7.57,21.84 5.05,4.45 14.01,6.68 26.88,6.68 8.52,0 16.64,-0.84 24.36,-2.53 7.73,-1.68 13.32,-3.26 16.78,-4.75 3.47,-1.48 5.2,-2.32 5.2,-2.52l0.3 0.59c0,0.4 0.1,0.89 0.3,1.49 0.19,0.59 0.44,1.28 0.74,2.08 0.3,0.79 0.49,1.73 0.6,2.82 0.09,1.09 0.15,2.23 0.15,3.41 0,1.79 -0.21,3.52 -0.6,5.2 -0.4,1.68 -0.79,2.92 -1.19,3.71l-0.3 1.19c-11.09,6.54 -26.53,9.81 -46.34,9.81 -23.36,0 -40.2,-4.12 -50.49,-12.33 -10.3,-8.22 -15.45,-20.45 -15.45,-36.69zm233.18 46.35l0 -10.7c-1.39,0.99 -3.27,2.22 -5.64,3.71 -2.38,1.48 -7.68,3.47 -15.9,5.94 -8.22,2.48 -16.78,3.72 -25.69,3.72 -14.85,0 -25.55,-3.47 -32.08,-10.4 -6.54,-6.93 -9.81,-17.28 -9.81,-30.94l0 -4.46c0,-12.08 4.21,-21.44 12.63,-28.12 8.41,-6.63 22.13,-10.99 41.19,-13.06l35.3 -3.92 0 -14.56c0,-9.1 -2.13,-15.74 -6.39,-19.9 -4.25,-4.15 -11.63,-6.24 -22.13,-6.24 -10.3,0 -17.52,1.99 -21.68,5.95 -4.16,3.96 -6.24,10.39 -6.24,19.3l0 3.27c-4.75,1.19 -9.7,1.79 -14.85,1.79l-15.15 -1.79 0 -3.27c0,-15.44 4.26,-26.93 12.77,-34.45 8.52,-7.53 23.57,-11.29 45.15,-11.29 21.39,0 36.78,3.91 46.19,11.73 9.41,7.82 14.11,19.46 14.11,34.9l0 102.79c-5.15,1.18 -10.4,1.77 -15.74,1.77l-16.04 -1.77zm0 -68.52l-29.41 3.86c-10.1,1.18 -17.33,3.56 -21.69,7.13 -4.35,3.51 -6.53,8.36 -6.53,14.5l0 4.45c0,7.33 1.64,12.58 4.91,15.85 3.26,3.27 9.05,4.9 17.37,4.9 7.52,0 14.26,-1.04 20.2,-3.12 5.94,-2.08 9.9,-4.11 11.88,-6.09l3.27 -3.21 0 -38.27zm94.75 -38.82l0 5.99c0,4.76 2.23,8.22 6.69,10.3 4.4,2.13 11.19,4.16 20.25,6.14 6.38,1.33 11.58,2.37 15.64,3.22 4.01,0.84 9.21,2.32 15.59,4.5 6.34,2.18 11.34,4.5 15.01,7.08 3.71,2.57 6.97,6.09 9.85,10.49 2.87,4.46 4.31,9.31 4.31,14.66l0 5.94c0,13.96 -4.71,24.41 -14.12,31.34 -9.4,6.88 -24.8,10.35 -46.18,10.35 -21.99,0 -37.38,-3.76 -46.2,-11.3 -8.8,-7.52 -13.22,-19 -13.22,-34.45l0 -1.78c4.96,-1.19 10.01,-1.79 15.16,-1.79l15.44 1.79 0 1.78c0,9.11 2.13,15.65 6.39,19.61 4.26,3.96 11.73,5.94 22.43,5.94 10.49,0 17.86,-1.74 22.13,-5.2 4.25,-3.42 6.38,-8.91 6.38,-16.44l0 -5.89c0,-4.95 -2.47,-8.71 -7.42,-11.29 -4.96,-2.57 -11.99,-4.6 -21.15,-6.19 -6.13,-1.33 -11.18,-2.47 -15.14,-3.31 -3.91,-0.84 -8.96,-2.38 -15.1,-4.56 -6.14,-2.17 -10.94,-4.5 -14.41,-6.98 -3.46,-2.47 -6.58,-5.79 -9.35,-9.95 -2.78,-4.16 -4.17,-8.91 -4.17,-14.25l0 -5.95c0,-13.86 4.61,-24.3 13.82,-31.33 9.21,-7.04 24.21,-10.55 45,-10.55 21.39,0 36.28,3.76 44.7,11.29 8.42,7.52 12.63,19.01 12.63,34.45l0 2.09c-5.15,0.98 -10.3,1.48 -15.45,1.48l-15.15 -1.48 0 -2.09c0,-8.91 -1.98,-15.34 -5.94,-19.3 -3.96,-3.96 -10.89,-5.95 -20.79,-5.95 -10.1,0 -17.23,1.74 -21.39,5.25 -4.16,3.47 -6.24,8.91 -6.24,16.34zm150.61 -39.41l0 146.75c-5.35,1.18 -10.6,1.77 -15.75,1.77l-15.74 -1.77 0 -146.75c5.15,-1.18 10.4,-1.78 15.74,-1.78l15.75 1.78zm0 -59.4l0 32.97c-5.35,0.99 -10.6,1.48 -15.75,1.48l-15.74 -1.48 0 -32.97c5.15,-1.19 10.4,-1.79 15.74,-1.79l15.75 1.79zm64.75 59.4l0 10.7c1.19,-1 3.02,-2.23 5.5,-3.71 2.47,-1.49 7.72,-3.47 15.74,-5.94 8.02,-2.48 16.39,-3.72 25.1,-3.72 15.84,0 27.28,4.11 34.31,12.33 7.03,8.22 10.54,20.44 10.54,36.68l0 100.41c-5.15,1.18 -10.39,1.77 -15.74,1.77l-16.04 -1.77 0 -100.41c0,-10.3 -1.78,-17.62 -5.34,-21.98 -3.57,-4.36 -9.81,-6.54 -18.72,-6.54 -7.53,0 -14.26,1.05 -20.2,3.12 -5.94,2.09 -10,4.12 -12.18,6.09l-2.97 3.27 0 116.45c-5.34,1.18 -10.59,1.77 -15.74,1.77l-15.74 -1.77 0 -146.75c5.15,-1.18 10.39,-1.78 15.74,-1.78l15.74 1.78zm122.68 100.4l0 -54.06c0,-16.24 4.9,-28.46 14.7,-36.68 9.81,-8.22 25.6,-12.33 47.38,-12.33 21.79,0 37.58,4.11 47.38,12.33 9.8,8.22 14.71,20.44 14.71,36.68l0 54.06c0,16.24 -4.91,28.47 -14.71,36.69 -9.8,8.21 -25.59,12.33 -47.38,12.33 -21.78,0 -37.57,-4.12 -47.38,-12.33 -9.8,-8.22 -14.7,-20.45 -14.7,-36.69zm31.49 -54.06l0 54.06c0,10.1 2.28,17.38 6.83,21.84 4.55,4.45 12.48,6.68 23.76,6.68 11.1,0 18.92,-2.23 23.47,-6.68 4.55,-4.46 6.83,-11.74 6.83,-21.84l0 -54.06c0,-10.1 -2.28,-17.37 -6.83,-21.83 -4.55,-4.45 -12.37,-6.69 -23.47,-6.69 -11.28,0 -19.21,2.24 -23.76,6.69 -4.55,4.46 -6.83,11.73 -6.83,21.83z" class="fil1"></path> <path fill="#FEFEFE" d="M271.42 855.78c-30.93,-9.83 -58.18,-5.33 -85.06,-27.16 -2.49,-2.01 -14.21,0.86 -16.64,-1.24 -8.37,-7.24 -16.45,-15.01 -24.14,-23.27 -6.87,-26.54 0.94,-15.23 -10.39,-33.8 -2.57,-3.82 -3.56,-8.78 -2.2,-13.27 2.25,-7.43 9.87,-11.06 16.97,-8.23 31.46,12.69 36.06,0.24 65.4,-9.71 21.99,-7.79 40.77,-21.27 58.49,-44.9 5.52,-6.53 10.6,-13.67 15.17,-21.39 1.93,-3.31 5.03,-5.75 8.88,-6.58 7.41,-1.49 14.56,3.99 15.86,12.31 0.38,2.29 0.8,4.57 1.25,6.83 6.76,33.39 -6.02,81.47 15.72,105.05 2.15,2.38 126.43,50.49 -4.61,75.78 -31.37,6.05 -23.7,-0.46 -54.7,-10.42zm-200.52 -674.37c46.43,-0.25 59.41,31.83 59.88,64.08 0.5,34.94 -20.62,52.37 -26.23,72.8 -6.42,23.36 -7,61.33 -47.45,60.28 -30.77,-0.81 -51.48,-44.37 -56.42,-89.61 -5.59,-51.13 23.8,-107.28 70.22,-107.55zm456.44 -180.23c-65.36,-8.88 -89.54,33.93 -96.12,79.28 -7.12,49.13 19.44,77.56 23.59,107.37 4.75,34.08 -1.41,87.68 55.79,93.62 37.3,-12.93 45.44,-59.82 60.72,-122.68 17.26,-70.97 8.71,-120.3 -43.98,-157.59zm-225.92 12.28c58.28,12.1 65.99,55.79 57.94,96.35 -8.7,43.94 -39.84,60.15 -52.34,84.26 -14.28,27.56 -25.15,75.02 -75.6,62.89 -38.35,-9.21 -52.67,-69.37 -46.79,-127.43 6.66,-65.57 58.52,-128.14 116.79,-116.07zm-170.11 391.28c20.39,-17.68 44.62,-34.7 71.72,-51.14 27.26,-16.54 57.45,-32.81 89.96,-47.88 26.33,-13.18 52.97,-19.14 78.3,-17.22 25.01,1.92 48.62,11.7 69.38,29.78 17.21,15.7 33.17,31.13 47.67,46.47 7.46,7.89 -4.59,57.16 2.08,65.03 19.77,23.32 34.24,31.73 46.92,54.9 25.59,47.85 31.53,56.47 23.03,106.03 -9.66,64.26 5.02,99.04 -99.12,107.25 -29.86,2.17 -38.67,-5.52 -61.91,-24.43 -17.92,-14.28 -48.81,2.19 -58.71,-20.64 -2.97,-6.85 -5.51,-14.02 -7.55,-21.46 -2.1,-7.78 -5.54,-13.57 -9.67,-17.45 -0.67,-0.59 -1.36,-1.14 -2.05,-1.63 -2.26,-1.61 -3.66,-5.62 -6.15,-6.16 -3.27,-0.69 -12.71,-6.16 -16.2,-4.87 -5.13,1.89 -14,7.1 -18.73,13.37 -19.02,25.22 -33.03,30.65 -60.45,36.74 -12.73,2.74 -28.67,21.58 -41.78,20.01 -15.12,-1.81 -30.2,-6.52 -44.54,-14.22 -26.86,-14.06 -47.83,-36.42 -60.75,-62.32 -12.95,-25.71 -17.9,-55.11 -12.56,-84.37 7.03,-37.46 32.35,-73.08 71.11,-105.79z" class="fil2"></path> <path d="M145.58 804.11c-14.2,-15.25 -27.17,-32.21 -38.49,-50.79 -2.57,-3.81 -3.57,-8.78 -2.21,-13.26 2.26,-7.44 9.88,-11.07 16.98,-8.23 31.46,12.68 64.16,13.36 93.5,3.41 21.99,-7.79 42.18,-21.74 58.51,-41.06 -34.18,46.55 -76.97,84.26 -128.29,109.93zm119.04 77.61c-30.92,-9.84 -60.65,-26.33 -87.52,-48.15 -2.49,-2.02 -4.96,-4.09 -7.4,-6.2 53.86,-42.31 102.47,-90.01 145.31,-142.01 6.76,33.4 22.39,63.57 44.13,87.15 22.9,25.32 52.74,42.99 86.38,48.7 3.86,0.73 7.52,3.31 9.72,7.67 4.09,7.71 2.24,17.86 -4.08,22.51 -28.83,21.32 -60.07,34.26 -91.69,38.89 -31.61,4.63 -63.85,1.4 -94.85,-8.56zm262.72 -880.54l3.39 0.54c63.04,11.29 92.76,94.11 75.79,163.85 -15.27,62.85 -52.44,120.4 -95.92,115.88l-0.51 -0.06c19.37,-90.61 25.61,-184.91 17.25,-280.21zm-186.73 651.66c65.36,-86.81 115.37,-184.33 147.67,-288.15 7.5,7.92 14.6,15.82 21.29,23.71 19.77,23.32 36.09,46.56 48.77,69.72 25.59,47.85 35.85,95.38 27.35,144.94 -5.47,36.39 -20.74,68.73 -42.05,92.41 -21.34,23.48 -48.74,38.42 -78.69,40.78 -29.86,2.17 -58.43,-7.99 -81.67,-26.9 -17.93,-14.29 -32.76,-33.66 -42.67,-56.51zm379.56 -414.57c-59.95,-21.53 -91.4,14.02 -106.76,55.56 -16.62,44.96 2.74,77.17 0.67,106.17 -2.38,33.18 -19,82.55 33.85,99.68 40.17,13.03 86.88,-33.89 113.95,-90.16 30.6,-63.58 18.24,-149.68 -41.71,-171.25zm-398.81 374.07c31.26,-68.93 53.07,-150.3 57.15,-235.19 0.36,-7.52 0.73,-16.61 -3.31,-21.42 -14.46,122.75 -94.06,237.41 -197.15,315.71 13.12,1.57 26.27,0.95 38.99,-1.79 27.43,-6.09 52.87,-22.33 71.88,-47.55 4.74,-6.27 9.9,-10.24 15.03,-12.13 3.49,-1.29 6.98,-1.58 10.25,-0.88 2.5,0.54 4.9,1.64 7.16,3.25z" class="fil3"></path></symbol></defs><use xlink:href="#logo_main" fill="#1991EB"></use></svg>